<?xml version="1.0" standalone="no"?>
<!DOCTYPE svg PUBLIC "-//W3C//DTD SVG 20010904//EN"
 "http://www.w3.org/TR/2001/REC-SVG-20010904/DTD/svg10.dtd">
<svg version="1.0" xmlns="http://www.w3.org/2000/svg"
 width="416.000000pt" height="416.000000pt" viewBox="0 0 416.000000 416.000000"
 preserveAspectRatio="xMidYMid meet">

<g transform="translate(0.000000,416.000000) scale(0.100000,-0.100000)"
fill="#000000" stroke="none">
<path d="M1905 3220 c-317 -57 -595 -246 -754 -512 l-23 -38 36 0 c32 0 38 5
72 58 91 138 284 297 441 362 146 61 212 73 393 74 181 0 261 -14 403 -75 160
-68 339 -215 436 -358 49 -71 113 -203 132 -271 7 -25 13 -46 15 -48 1 -1 14
3 28 10 32 14 31 20 -15 138 -89 232 -280 438 -514 555 -158 79 -271 107 -455
111 -80 1 -167 -1 -195 -6z"/>
<path d="M1954 3065 c5 -18 2 -25 -8 -25 -8 0 -21 -3 -30 -6 -12 -5 -16 0 -16
20 0 14 -5 26 -10 26 -12 0 -3 -77 12 -100 7 -11 8 -8 5 12 -3 20 1 28 17 32
32 9 33 8 40 -20 11 -43 18 -20 10 35 -4 28 -11 51 -16 51 -6 0 -7 -11 -4 -25z"/>
<path d="M2166 3078 c-3 -7 -7 -32 -9 -55 -4 -37 -2 -43 13 -43 10 0 25 -3 34
-6 9 -3 16 -1 16 5 0 6 -12 11 -26 11 -25 0 -26 1 -19 50 6 45 0 69 -9 38z"/>
<path d="M2306 3038 c-20 -29 -20 -62 0 -82 20 -21 37 -20 56 2 23 26 27 58
11 81 -19 27 -48 27 -67 -1z m58 -45 c-10 -31 -42 -43 -55 -21 -11 17 -2 49
19 66 26 20 49 -9 36 -45z"/>
<path d="M1748 3039 c-28 -16 -22 -48 10 -55 55 -12 57 -13 39 -31 -14 -14
-18 -14 -33 -2 -15 12 -17 12 -12 -1 11 -34 68 -17 68 20 0 20 -19 30 -57 30
-15 0 -23 5 -20 13 2 6 16 12 30 12 30 -1 36 10 11 19 -19 7 -15 8 -36 -5z"/>
<path d="M1607 2974 l-27 -15 20 -37 c35 -66 34 -66 71 -43 34 21 24 30 -12
11 -15 -9 -21 -7 -26 6 -4 10 0 20 10 26 10 5 17 13 17 19 0 5 -9 4 -20 -3
-16 -10 -22 -10 -32 1 -9 9 -10 15 -2 18 19 7 50 32 39 32 -5 0 -22 -7 -38
-15z"/>
<path d="M2461 2964 c-24 -30 -25 -38 -11 -65 11 -20 54 -26 65 -10 3 6 -7 9
-22 8 -22 -2 -29 3 -31 21 -4 26 23 62 45 62 7 0 18 -10 23 -22 9 -23 9 -23 9
-2 2 41 -49 45 -78 8z"/>
<path d="M1930 2895 c-141 -29 -262 -91 -365 -187 -81 -75 -144 -163 -128
-179 6 -6 23 11 48 46 49 72 145 159 226 208 152 90 361 121 528 78 161 -40
293 -123 394 -246 30 -37 56 -60 61 -55 13 13 -18 56 -99 135 -177 174 -426
249 -665 200z"/>
<path d="M1466 2871 c-18 -19 -17 -21 15 -60 19 -22 36 -36 37 -30 2 5 -2 16
-8 24 -17 20 11 31 39 16 11 -6 22 -7 25 -2 3 5 -5 12 -18 15 -15 4 -26 15
-28 29 -4 29 -39 34 -62 8z m49 -1 c7 -12 -12 -40 -27 -40 -16 0 -21 32 -7 41
18 12 26 11 34 -1z"/>
<path d="M2603 2863 c-24 -13 -43 -29 -43 -35 0 -6 6 -6 15 2 22 18 55 -12 48
-43 -11 -45 15 -2 31 51 17 60 13 63 -51 25z m40 -13 c-5 -20 -15 -25 -26 -13
-8 7 11 33 23 33 5 0 6 -9 3 -20z"/>
<path d="M1357 2764 c-11 -14 -17 -26 -15 -27 2 -1 20 -17 40 -36 21 -19 41
-32 45 -28 3 4 -2 13 -11 20 -16 12 -17 17 -6 38 13 23 12 24 -7 6 -18 -16
-21 -16 -33 -2 -11 13 -10 19 5 35 10 11 14 20 9 20 -5 0 -17 -12 -27 -26z"/>
<path d="M2714 2756 l-39 -34 24 -26 c14 -14 27 -24 29 -21 3 3 -3 14 -14 26
-18 20 -18 21 21 54 22 19 35 34 29 35 -6 0 -28 -15 -50 -34z"/>
<path d="M2344 2720 c-45 -14 -127 -91 -174 -164 l-40 -62 -88 14 c-51 9 -164
15 -272 16 -157 1 -192 -2 -232 -17 -89 -34 -137 -121 -104 -185 21 -40 44
-52 98 -51 l43 0 -35 12 c-19 7 -41 24 -49 39 -14 24 -14 30 1 62 37 76 176
106 402 87 72 -7 149 -15 171 -18 36 -6 38 -7 15 -14 -24 -7 -24 -7 -2 -8 l22
-1 -30 -60 c-38 -75 -83 -188 -126 -314 -35 -103 -60 -140 -122 -178 -24 -15
-36 -18 -44 -10 -15 15 10 104 63 231 41 99 47 129 27 149 -14 14 -48 16 -48
3 0 -5 -5 -22 -10 -37 l-11 -28 -20 32 c-23 40 -38 46 -85 37 -109 -20 -258
-287 -213 -381 35 -71 111 -70 184 2 38 39 45 42 45 24 0 -29 44 -70 75 -70
15 0 41 14 64 35 45 41 49 42 53 13 4 -28 30 -35 51 -14 8 8 24 47 36 86 21
68 23 70 49 64 41 -10 45 -14 39 -48 -12 -77 23 -124 85 -111 22 5 53 29 96
73 57 60 62 63 62 39 0 -39 47 -86 92 -94 81 -12 222 95 317 240 33 52 49 67
67 67 29 0 29 3 4 -60 -11 -28 -23 -75 -26 -104 -6 -49 -4 -57 19 -80 16 -16
37 -26 55 -26 31 0 102 43 142 85 l24 25 10 -32 c23 -69 107 -72 181 -7 39 35
47 24 13 -16 -16 -17 -47 -32 -96 -45 -204 -56 -342 -176 -342 -298 0 -61 33
-95 92 -95 106 2 244 124 363 322 l38 63 61 -7 c125 -14 186 -65 171 -144 -3
-20 -13 -46 -21 -58 -13 -20 -13 -23 0 -23 8 0 28 11 43 24 24 21 28 32 28 74
0 63 -24 98 -87 130 -26 13 -76 27 -112 30 l-64 7 70 125 c112 200 133 257
102 291 -9 10 -21 19 -25 19 -4 0 -28 -40 -53 -90 -64 -128 -105 -188 -169
-248 -59 -55 -97 -75 -122 -66 -27 11 -16 62 36 161 29 54 58 109 65 123 24
46 27 76 9 94 -10 9 -21 16 -26 14 -5 -2 -42 -66 -82 -144 -39 -77 -81 -151
-92 -165 -42 -50 -115 -109 -136 -109 -19 0 -21 4 -16 36 4 20 36 97 72 172
36 74 65 142 65 152 0 16 -29 50 -42 50 -3 0 -20 -25 -37 -55 -29 -51 -79 -95
-107 -95 -6 0 3 35 22 83 56 136 43 237 -31 237 -32 0 -94 -55 -116 -105 -34
-74 -14 -190 40 -227 20 -14 20 -15 -16 -68 -54 -81 -173 -195 -217 -210 -73
-24 -106 7 -92 85 5 25 12 35 25 35 28 0 85 26 120 56 43 36 80 102 87 155 5
36 3 47 -14 63 -81 72 -238 -59 -283 -235 -22 -86 -136 -194 -184 -175 -10 4
-15 19 -15 50 0 42 2 45 33 51 87 19 151 99 152 192 0 44 -4 57 -28 80 -33 33
-92 37 -145 9 -19 -10 -36 -16 -38 -13 -2 2 9 35 24 73 23 55 33 70 53 73 23
3 23 4 4 12 -14 6 -5 8 30 6 72 -5 170 10 214 33 102 51 134 177 60 233 -31
22 -100 30 -145 17z m123 -56 c48 -48 14 -126 -72 -165 -45 -21 -195 -27 -195
-9 0 17 65 113 96 142 67 62 129 74 171 32z m369 -210 c7 -27 -37 -178 -61
-211 -11 -14 -16 -15 -26 -6 -17 17 -23 114 -10 156 26 78 84 115 97 61z
m-236 -201 c0 -52 -60 -132 -123 -165 -67 -34 -73 -22 -32 59 39 79 92 133
130 133 21 0 25 -5 25 -27z m-327 -14 c14 -22 1 -80 -26 -120 -39 -59 -132
-92 -204 -73 l-21 6 19 56 c21 62 56 104 109 133 42 22 108 21 123 -2z m-509
-51 c22 -31 21 -40 -16 -132 -40 -98 -129 -200 -169 -194 -19 2 -25 10 -27 34
-9 92 118 314 179 314 10 0 25 -10 33 -22z m1411 -307 c-3 -6 -14 -11 -23 -11
-9 0 -24 -5 -32 -10 -11 -8 -7 -9 14 -4 27 6 28 6 16 -17 -24 -46 -111 -157
-150 -193 -92 -83 -170 -89 -170 -13 0 93 118 193 290 248 57 18 67 18 55 0z"/>
<path d="M2329 2628 c-20 -18 -26 -26 -15 -17 12 9 32 23 46 32 13 10 20 17
14 17 -6 0 -26 -15 -45 -32z"/>
<path d="M2269 2563 c-13 -16 -12 -17 4 -4 9 7 17 15 17 17 0 8 -8 3 -21 -13z"/>
<path d="M2759 2383 c-5 -15 -9 -36 -7 -47 2 -11 8 1 14 27 12 52 9 61 -7 20z"/>
<path d="M2519 2213 l-34 -38 38 34 c20 19 37 36 37 38 0 8 -8 0 -41 -34z"/>
<path d="M2470 2150 c-6 -11 -8 -20 -6 -20 3 0 10 9 16 20 6 11 8 20 6 20 -3
0 -10 -9 -16 -20z"/>
<path d="M1667 2128 c-27 -37 -45 -69 -30 -53 18 19 64 85 59 85 -3 0 -16 -15
-29 -32z"/>
<path d="M1591 1989 c-6 -18 -11 -37 -10 -43 0 -6 7 7 15 28 8 22 12 41 10 43
-2 2 -9 -10 -15 -28z"/>
<path d="M3070 1840 c-8 -5 -10 -10 -5 -10 6 0 17 5 25 10 8 5 11 10 5 10 -5
0 -17 -5 -25 -10z"/>
<path d="M2939 1763 c-13 -16 -12 -17 4 -4 9 7 17 15 17 17 0 8 -8 3 -21 -13z"/>
<path d="M2899 1733 c-13 -16 -12 -17 4 -4 16 13 21 21 13 21 -2 0 -10 -8 -17
-17z"/>
<path d="M1056 2599 c-68 -16 -179 -82 -248 -147 -177 -168 -256 -421 -152
-489 76 -49 204 19 204 109 0 36 -16 44 -24 13 -9 -35 -61 -92 -92 -99 -17 -5
-35 -1 -50 9 -49 32 -25 153 58 292 51 88 143 175 229 217 218 107 348 36 316
-173 -10 -70 -11 -71 -55 -71 -39 0 -122 -36 -158 -68 -12 -10 -34 -42 -49
-71 -25 -49 -25 -54 -10 -77 40 -61 197 11 266 122 11 19 24 34 29 34 17 0 49
-67 56 -117 9 -72 -18 -186 -69 -286 -32 -62 -62 -103 -127 -167 -105 -105
-168 -141 -260 -148 -77 -5 -126 8 -172 46 -74 62 -79 196 -10 275 29 33 -17
20 -49 -14 -74 -79 -65 -217 20 -300 81 -79 192 -99 313 -58 156 52 281 173
362 351 46 99 59 165 54 256 -5 86 -29 144 -76 184 -27 23 -28 26 -16 58 7 19
13 69 13 110 1 60 -4 83 -22 115 -49 86 -158 123 -281 94z m204 -388 c0 -18
-94 -113 -131 -131 -39 -20 -79 -26 -79 -12 1 17 47 87 71 104 45 34 139 60
139 39z"/>
<path d="M1119 2133 l-34 -38 38 34 c34 33 42 41 34 41 -2 0 -19 -17 -38 -37z"/>
<path d="M1361 2485 c1 -19 18 -51 18 -35 0 8 -4 22 -9 30 -5 8 -9 11 -9 5z"/>
<path d="M949 2459 l-24 -20 28 17 c15 9 27 18 27 20 0 8 -8 4 -31 -17z"/>
<path d="M989 2460 l-24 -20 37 6 c71 12 62 -34 -58 -285 -79 -164 -100 -195
-149 -217 -17 -7 -23 -13 -13 -14 9 0 31 12 48 27 l32 26 -17 -39 c-84 -191
-85 -286 -7 -309 21 -6 23 -4 17 17 -4 12 -9 31 -11 40 -11 38 30 152 125 348
102 209 131 288 131 347 0 82 -57 119 -111 73z"/>
<path d="M1703 2453 c9 -2 23 -2 30 0 6 3 -1 5 -18 5 -16 0 -22 -2 -12 -5z"/>
<path d="M1863 2453 c15 -2 39 -2 55 0 15 2 2 4 -28 4 -30 0 -43 -2 -27 -4z"/>
<path d="M1983 2443 c9 -2 25 -2 35 0 9 3 1 5 -18 5 -19 0 -27 -2 -17 -5z"/>
<path d="M2883 2410 c0 -25 2 -35 4 -22 2 12 2 32 0 45 -2 12 -4 2 -4 -23z"/>
<path d="M860 2383 l-55 -58 58 55 c53 50 62 60 54 60 -1 0 -27 -26 -57 -57z"/>
<path d="M1383 2375 c0 -33 2 -45 4 -27 2 18 2 45 0 60 -2 15 -4 0 -4 -33z"/>
<path d="M2358 2423 c6 -2 18 -2 25 0 6 3 1 5 -13 5 -14 0 -19 -2 -12 -5z"/>
<path d="M2258 2413 c12 -2 32 -2 45 0 12 2 2 4 -23 4 -25 0 -35 -2 -22 -4z"/>
<path d="M2871 2353 c-1 -6 -4 -20 -7 -30 -5 -17 -5 -17 6 0 6 10 9 23 6 30
-3 9 -5 9 -5 0z"/>
<path d="M793 2308 c-15 -20 -25 -38 -20 -38 3 0 12 11 21 25 17 26 16 35 -1
13z"/>
<path d="M750 2240 c-6 -11 -8 -20 -6 -20 3 0 10 9 16 20 6 11 8 20 6 20 -3 0
-10 -9 -16 -20z"/>
<path d="M1538 2243 c7 -3 16 -2 19 1 4 3 -2 6 -13 5 -11 0 -14 -3 -6 -6z"/>
<path d="M2975 2210 c-9 -16 -13 -30 -11 -30 3 0 12 14 21 30 9 17 13 30 11
30 -3 0 -12 -13 -21 -30z"/>
<path d="M1076 2215 c-9 -26 -7 -32 5 -12 6 10 9 21 6 23 -2 3 -7 -2 -11 -11z"/>
<path d="M3175 2170 c-9 -16 -13 -30 -11 -30 3 0 12 14 21 30 9 17 13 30 11
30 -3 0 -12 -13 -21 -30z"/>
<path d="M2621 2163 c-10 -26 -10 -27 4 -9 8 11 15 23 15 28 0 15 -7 8 -19
-19z"/>
<path d="M3446 2173 c-6 -14 -5 -15 5 -6 7 7 10 15 7 18 -3 3 -9 -2 -12 -12z"/>
<path d="M2331 2144 c0 -11 3 -14 6 -6 3 7 2 16 -1 19 -3 4 -6 -2 -5 -13z"/>
<path d="M1876 2135 c-9 -26 -7 -32 5 -12 6 10 9 21 6 23 -2 3 -7 -2 -11 -11z"/>
<path d="M1240 2078 c-30 -28 -46 -46 -35 -40 19 10 104 92 95 92 -3 -1 -30
-24 -60 -52z"/>
<path d="M2555 2083 c-27 -25 -41 -41 -30 -35 19 10 94 82 84 82 -2 -1 -26
-22 -54 -47z"/>
<path d="M3135 2099 c-9 -17 -15 -33 -13 -35 3 -2 12 12 21 31 21 43 13 47 -8
4z"/>
<path d="M3405 2100 c-9 -16 -13 -30 -11 -30 3 0 12 14 21 30 9 17 13 30 11
30 -3 0 -12 -13 -21 -30z"/>
<path d="M2311 2093 c-10 -26 -10 -27 4 -9 8 11 15 23 15 28 0 15 -7 8 -19
-19z"/>
<path d="M1856 2085 c-9 -26 -7 -32 5 -12 6 10 9 21 6 23 -2 3 -7 -2 -11 -11z"/>
<path d="M2896 2055 c-9 -26 -7 -32 5 -12 6 10 9 21 6 23 -2 3 -7 -2 -11 -11z"/>
<path d="M957 1964 c-26 -52 -47 -98 -46 -102 0 -4 23 37 50 92 28 54 49 100
47 102 -2 2 -25 -39 -51 -92z"/>
<path d="M2269 2033 l-24 -28 28 24 c25 23 32 31 24 31 -2 0 -14 -12 -28 -27z"/>
<path d="M2709 2043 c-13 -16 -12 -17 4 -4 16 13 21 21 13 21 -2 0 -10 -8 -17
-17z"/>
<path d="M1836 2035 c-9 -26 -7 -32 5 -12 6 10 9 21 6 23 -2 3 -7 -2 -11 -11z"/>
<path d="M2625 1953 c-38 -37 -56 -57 -40 -46 29 21 124 113 115 113 -3 -1
-36 -31 -75 -67z"/>
<path d="M2412 1970 c0 -19 2 -27 5 -17 2 9 2 25 0 35 -3 9 -5 1 -5 -18z"/>
<path d="M2974 1948 l-19 -23 23 19 c21 18 27 26 19 26 -2 0 -12 -10 -23 -22z"/>
<path d="M2006 1934 c-4 -14 -5 -28 -3 -31 3 -2 8 8 11 23 4 14 5 28 3 31 -3
2 -8 -8 -11 -23z"/>
<path d="M2245 1883 c-27 -25 -41 -41 -30 -35 19 10 94 82 84 82 -2 -1 -26
-22 -54 -47z"/>
<path d="M1451 1904 c0 -11 3 -14 6 -6 3 7 2 16 -1 19 -3 4 -6 -2 -5 -13z"/>
<path d="M1441 1864 c0 -11 3 -14 6 -6 3 7 2 16 -1 19 -3 4 -6 -2 -5 -13z"/>
<path d="M1674 1849 c-3 -6 -25 -20 -48 -30 -22 -10 -35 -19 -28 -19 18 0 66
26 81 44 8 9 11 16 8 16 -3 0 -9 -5 -13 -11z"/>
<path d="M2700 1798 c-48 -86 -159 -200 -244 -252 -309 -191 -708 -128 -937
149 -29 36 -40 43 -45 31 -15 -38 154 -188 276 -245 117 -55 216 -74 354 -69
140 6 239 33 346 95 88 51 227 191 273 274 41 73 43 79 25 79 -7 0 -29 -28
-48 -62z"/>
<path d="M1854 1834 c-18 -14 -18 -15 4 -4 12 6 22 13 22 15 0 8 -5 6 -26 -11z"/>
<path d="M1412 1785 c-17 -37 -14 -45 4 -12 9 16 14 31 11 33 -2 2 -9 -7 -15
-21z"/>
<path d="M725 1740 c-8 -16 -15 -37 -14 -47 0 -12 3 -9 8 8 5 14 14 35 20 47
6 12 9 22 7 22 -3 0 -12 -13 -21 -30z"/>
<path d="M3189 1733 c-13 -16 -12 -17 4 -4 16 13 21 21 13 21 -2 0 -10 -8 -17
-17z"/>
<path d="M1375 1710 c-9 -16 -13 -30 -11 -30 3 0 12 14 21 30 9 17 13 30 11
30 -3 0 -12 -13 -21 -30z"/>
<path d="M3567 1721 c-4 -17 -3 -21 5 -13 5 5 8 16 6 23 -3 8 -7 3 -11 -10z"/>
<path d="M3115 1646 c-33 -34 -73 -73 -90 -85 -16 -12 -23 -19 -15 -15 33 16
91 67 130 114 23 28 40 50 38 50 -1 0 -30 -29 -63 -64z"/>
<path d="M701 1654 c0 -11 3 -14 6 -6 3 7 2 16 -1 19 -3 4 -6 -2 -5 -13z"/>
<path d="M1312 1612 c-38 -51 -39 -53 -7 -17 33 36 60 75 53 75 -2 0 -22 -26
-46 -58z"/>
<path d="M1437 1524 l-38 -42 23 -16 c30 -22 59 -20 65 3 3 11 11 22 19 25 21
8 17 30 -8 53 l-23 20 -38 -43z m65 -16 c-17 -17 -47 9 -30 29 10 12 13 12 27
-1 11 -12 12 -19 3 -28z m-35 -9 c14 -14 6 -39 -12 -39 -21 0 -36 25 -23 38
15 15 21 15 35 1z"/>
<path d="M1205 1504 c-30 -27 -32 -31 -9 -16 28 19 62 53 53 52 -2 -1 -22 -17
-44 -36z"/>
<path d="M2612 1518 c-17 -17 -15 -45 3 -52 8 -3 26 0 40 6 14 6 28 8 32 4 11
-11 -13 -41 -31 -38 -9 2 -16 -2 -16 -8 0 -17 36 -11 55 10 29 32 12 54 -35
46 -21 -3 -41 -2 -44 3 -8 12 21 34 34 26 5 -3 10 -1 10 4 0 15 -33 14 -48 -1z"/>
<path d="M1281 1476 l-22 -23 74 -70 c413 -392 1050 -397 1470 -12 l68 62 -28
17 -28 17 -60 -56 c-390 -363 -1010 -351 -1391 27 l-61 61 -22 -23z"/>
<path d="M1110 1445 c-25 -13 -41 -24 -37 -25 11 0 87 39 87 45 0 7 0 7 -50
-20z"/>
<path d="M1548 1436 c-27 -18 -45 -36 -41 -39 3 -4 12 -2 20 4 17 15 43 -6 43
-34 0 -33 16 -8 29 45 17 72 17 72 -51 24z m37 -15 c-4 -12 -12 -18 -21 -14
-13 5 -13 8 2 24 20 23 28 18 19 -10z"/>
<path d="M2498 1437 c-15 -12 -14 -17 14 -60 29 -45 30 -46 54 -30 28 18 31
49 8 81 -17 24 -50 28 -76 9z m69 -23 c17 -26 11 -53 -13 -61 -16 -5 -57 74
-42 80 26 11 38 6 55 -19z"/>
<path d="M1657 1373 c-15 -29 -23 -54 -18 -58 5 -3 12 4 16 15 9 29 25 24 32
-10 3 -17 10 -33 15 -36 8 -5 4 24 -7 63 -2 6 11 17 28 23 18 7 27 14 20 17
-6 2 -25 -3 -42 -12 -31 -15 -41 -9 -20 12 6 6 9 17 7 25 -3 7 -17 -10 -31
-39z"/>
<path d="M2380 1375 c-13 -16 -7 -60 12 -82 13 -16 50 -17 66 -1 29 29 -1 98
-42 98 -13 0 -29 -7 -36 -15z m66 -26 c14 -28 14 -33 1 -47 -20 -20 -45 -9
-53 23 -14 57 25 76 52 24z"/>
<path d="M1781 1329 c-7 -23 -15 -47 -17 -54 -3 -8 8 -17 27 -24 40 -14 53 -6
14 9 -19 7 -25 15 -21 26 3 9 6 17 6 20 0 2 11 -1 25 -6 16 -6 25 -6 25 0 0 6
-9 10 -20 10 -14 0 -20 7 -20 21 0 18 4 20 33 14 34 -6 21 7 -19 19 -18 5 -23
0 -33 -35z"/>
<path d="M2258 1339 c-24 -13 -23 -61 1 -90 16 -21 22 -22 45 -11 31 14 35 54
10 90 -17 24 -30 27 -56 11z m54 -33 c14 -32 4 -56 -22 -56 -23 0 -46 40 -37
64 10 25 46 19 59 -8z"/>
<path d="M1906 1332 c-2 -4 -7 -31 -11 -59 l-7 -53 31 0 c65 0 81 94 19 111
-16 4 -30 4 -32 1z m52 -45 c4 -31 -12 -57 -34 -57 -15 0 -20 70 -7 84 15 15
38 0 41 -27z"/>
<path d="M2128 1323 c-21 -5 -33 -43 -24 -77 11 -46 86 -46 86 0 0 18 -5 24
-21 24 -19 0 -19 -1 -4 -17 15 -14 15 -17 2 -25 -28 -15 -47 2 -47 43 0 31 4
39 18 39 10 0 23 -5 30 -12 7 -7 12 -8 12 -2 0 11 -21 35 -29 33 -4 -1 -14 -3
-23 -6z"/>
</g>
</svg>
